# xmcd
#
# Track frame offsets: 
#        150
#        70664
#        109837
#        144298
#        193226
#        214408
#        233608
#        262496
#
# Disc length: 3854 seconds
#
# Revision: 0
# Processed by: cddbd v1.5.2PL0 Copyright (c) Steve Scherf et al.
# Submitted via: ExactAudioCopy v1.0b3
#
DISCID=7c0f0c08
DTITLE=The Schubert Ensemble, William Howard - Brahms - Klavierquintet
DTITLE=t, Intermezzi (Schubert Ens., Howard)
DYEAR=2010
DGENRE=Acid
TTITLE0=Klavierquartett f-moll op. 34 - I. Allegro non troppo
TTITLE1=II. Andante, un poco adagio
TTITLE2=III. Scherzo: Allegro
TTITLE3=IV. Finale: Poco sostenuto -
TTITLE4=Drei Intermezzi op. 117 - Nr. 1 Es-dur
TTITLE5=Nr. 2 b-moll
TTITLE6=Nr. 3 cis-moll
TTITLE7=Intermezzo op. 118 Nr. 2 A-dur
EXTD=
EXTT0=
EXTT1=
EXTT2=
EXTT3=
EXTT4=
EXTT5=
EXTT6=
EXTT7=
PLAYORDER=
